<?xml version="1.0" encoding="UTF-8"?>
<svg width="13px" height="14px" viewBox="0 0 13 14" version="1.1" xmlns="http://www.w3.org/2000/svg" xmlns:xlink="http://www.w3.org/1999/xlink">
    <!-- Generator: sketchtool 51.3 (57544) - http://www.bohemiancoding.com/sketch -->
    <title>2390B56A-D659-43DB-B44A-DE982D821E4B</title>
    <desc>Created with sketchtool.</desc>
    <defs></defs>
    <g id="desktop" stroke="none" stroke-width="1" fill="none" fill-rule="evenodd">
        <g id="Filiallar/1.2" transform="translate(-221.000000, -818.000000)" fill="#000000">
            <g id="map" transform="translate(170.000000, 325.000000)">
                <g id="Group-3-Copy-2" transform="translate(50.000000, 489.000000)">
                    <g id="Group-2" transform="translate(1.000000, 0.000000)">
                        <path d="M0,14.5 L0,7.0625 C0,6.40624672 0.164060859,5.86545352 0.4921875,5.44010417 C0.820314141,5.01475482 1.30642039,4.70486208 1.95052083,4.51041667 C2.59462128,4.31597125 3.25694104,4.18229203 3.9375,4.109375 C4.61805896,4.03645797 5.44443958,4 6.41666667,4 C7.38889375,4 8.21527437,4.03645797 8.89583333,4.109375 C9.57639229,4.18229203 10.2387121,4.31597125 10.8828125,4.51041667 C11.5269129,4.70486208 12.0130192,5.01475482 12.3411458,5.44010417 C12.6692725,5.86545352 12.8333333,6.40624672 12.8333333,7.0625 L12.8333333,14.5 C12.8333333,14.6458341 12.8029517,14.7855896 12.7421875,14.9192708 C12.6814233,15.0529521 12.6145837,15.1562496 12.5416667,15.2291667 C12.4687496,15.3020837 12.3532994,15.3993049 12.1953125,15.5208333 C12.0373256,15.6423617 11.9218754,15.739583 11.8489583,15.8125 L11.8489583,17.234375 C11.8489583,17.4531261 11.7760424,17.6354159 11.6302083,17.78125 C11.4843743,17.9270841 11.3020844,18 11.0833333,18 L10.3177083,18 C10.0989572,18 9.91059107,17.9270841 9.75260417,17.78125 C9.59461727,17.6354159 9.515625,17.4531261 9.515625,17.234375 L9.515625,16.4322917 L3.31770833,16.4322917 L3.31770833,17.234375 C3.31770833,17.4531261 3.23871607,17.6354159 3.08072917,17.78125 C2.92274227,17.9270841 2.73437609,18 2.515625,18 L1.75,18 C1.53124891,18 1.34895906,17.9270841 1.203125,17.78125 C1.05729094,17.6354159 0.984375,17.4531261 0.984375,17.234375 L0.984375,15.8125 C0.911457969,15.739583 0.796007734,15.6423617 0.638020833,15.5208333 C0.480033932,15.3993049 0.364583698,15.30816 0.291666667,15.2473958 C0.218749635,15.1866316 0.151910026,15.0894104 0.0911458333,14.9557292 C0.0303816406,14.8220479 0,14.6701397 0,14.5 Z M2.91666667,15.0833333 C3.25694615,15.0833333 3.53645724,14.9739594 3.75520833,14.7552083 C3.97395943,14.5364572 4.08333333,14.2569461 4.08333333,13.9166667 C4.08333333,13.5763872 3.97395943,13.2968761 3.75520833,13.078125 C3.53645724,12.8593739 3.25694615,12.75 2.91666667,12.75 C2.57638719,12.75 2.29687609,12.8593739 2.078125,13.078125 C1.85937391,13.2968761 1.75,13.5763872 1.75,13.9166667 C1.75,14.2569461 1.85937391,14.5364572 2.078125,14.7552083 C2.29687609,14.9739594 2.57638719,15.0833333 2.91666667,15.0833333 Z M9.91666667,15.0833333 C10.2569461,15.0833333 10.5364572,14.9739594 10.7552083,14.7552083 C10.9739594,14.5364572 11.0833333,14.2569461 11.0833333,13.9166667 C11.0833333,13.5763872 10.9739594,13.2968761 10.7552083,13.078125 C10.5364572,12.8593739 10.2569461,12.75 9.91666667,12.75 C9.57638719,12.75 9.29687609,12.8593739 9.078125,13.078125 C8.85937391,13.2968761 8.75,13.5763872 8.75,13.9166667 C8.75,14.2569461 8.85937391,14.5364572 9.078125,14.7552083 C9.29687609,14.9739594 9.57638719,15.0833333 9.91666667,15.0833333 Z M11.0833333,10.5989583 L11.0833333,6.734375 L1.75,6.734375 L1.75,10.5989583 L11.0833333,10.5989583 Z" id="ion-android-bus---Ionicons"></path>
                    </g>
                </g>
            </g>
        </g>
    </g>
</svg>