<?xml version="1.0" encoding="UTF-8"?>
<svg width="10px" height="14px" viewBox="0 0 10 14" version="1.1" xmlns="http://www.w3.org/2000/svg" xmlns:xlink="http://www.w3.org/1999/xlink">
    <!-- Generator: sketchtool 51.3 (57544) - http://www.bohemiancoding.com/sketch -->
    <title>1C100F73-8E3F-4EFE-B429-DA2372AD638B</title>
    <desc>Created with sketchtool.</desc>
    <defs></defs>
    <g id="desktop" stroke="none" stroke-width="1" fill="none" fill-rule="evenodd">
        <g id="Filiallar/1.2" transform="translate(-222.000000, -442.000000)" fill="#000000">
            <g id="map" transform="translate(170.000000, 325.000000)">
                <g id="Group-5" transform="translate(50.000000, 114.000000)">
                    <g id="Group-2-Copy" transform="translate(2.000000, 0.000000)">
                        <path d="M5,3 C6.37500688,3 7.55207844,3.47916187 8.53125,4.4375 C9.51042156,5.39583813 10,6.55207656 10,7.90625 C10,8.98958875 9.5833375,10.2916591 8.75,11.8125 C7.9166625,13.3333409 7.0833375,14.5833284 6.25,15.5625 L5,17 C4.85416594,16.8541659 4.67187609,16.651043 4.453125,16.390625 C4.23437391,16.130207 3.83854453,15.6250038 3.265625,14.875 C2.69270547,14.1249962 2.18750219,13.3958369 1.75,12.6875 C1.31249781,11.9791631 0.911460156,11.1770878 0.546875,10.28125 C0.182289844,9.38541219 0,8.59375344 0,7.90625 C0,6.55207656 0.489578438,5.39583813 1.46875,4.4375 C2.44792156,3.47916187 3.62499312,3 5,3 Z M5,9.65625 C5.5000025,9.65625 5.92187328,9.48437672 6.265625,9.140625 C6.60937672,8.79687328 6.78125,8.38541906 6.78125,7.90625 C6.78125,7.42708094 6.60937672,7.01562672 6.265625,6.671875 C5.92187328,6.32812328 5.5000025,6.15625 5,6.15625 C4.4999975,6.15625 4.07812672,6.32812328 3.734375,6.671875 C3.39062328,7.01562672 3.21875,7.42708094 3.21875,7.90625 C3.21875,8.38541906 3.39062328,8.79687328 3.734375,9.140625 C4.07812672,9.48437672 4.4999975,9.65625 5,9.65625 Z" id="ion-android-pin---Ionicons"></path>
                    </g>
                </g>
            </g>
        </g>
    </g>
</svg>