<?xml version="1.0" encoding="UTF-8"?>
<svg width="8px" height="11px" viewBox="0 0 8 11" version="1.1" xmlns="http://www.w3.org/2000/svg" xmlns:xlink="http://www.w3.org/1999/xlink">
    <!-- Generator: sketchtool 51.3 (57544) - http://www.bohemiancoding.com/sketch -->
    <title>65F68856-50D3-4039-86BB-CFDF5300EE57</title>
    <desc>Created with sketchtool.</desc>
    <defs></defs>
    <g id="desktop" stroke="none" stroke-width="1" fill="none" fill-rule="evenodd">
        <g id="Filiallar/1.2" transform="translate(-808.000000, -134.000000)" fill="#FFFFFF">
            <g id="Group-9" transform="translate(659.000000, 121.000000)">
                <g id="Group-8" transform="translate(142.000000, 7.000000)">
                    <g id="Group-7">
                        <g id="Group-4">
                            <g id="Group-6" transform="translate(7.000000, 6.000000)">
                                <path d="M3.92857143,0 C5.00893397,0 5.93377592,0.37648433 6.703125,1.12946429 C7.47247408,1.88244424 7.85714286,2.7909173 7.85714286,3.85491071 C7.85714286,4.70610545 7.52976518,5.72916069 6.875,6.92410714 C6.22023482,8.11905359 5.56547946,9.10118663 4.91071429,9.87053571 L3.92857143,11 C3.81398752,10.8854161 3.67075979,10.7258195 3.49888393,10.5212054 C3.32700807,10.3165912 3.01599927,9.9196458 2.56584821,9.33035714 C2.11569715,8.74106848 1.71875172,8.16815754 1.375,7.61160714 C1.03124828,7.05505674 0.716147266,6.42485471 0.4296875,5.72098214 C0.143227734,5.01710958 0,4.39509199 0,3.85491071 C0,2.7909173 0.384668772,1.88244424 1.15401786,1.12946429 C1.92336694,0.37648433 2.84820888,0 3.92857143,0 Z M3.92857143,5.22991071 C4.32143054,5.22991071 4.65290044,5.09486742 4.92299107,4.82477679 C5.19308171,4.55468615 5.328125,4.23140069 5.328125,3.85491071 C5.328125,3.47842074 5.19308171,3.15513528 4.92299107,2.88504464 C4.65290044,2.61495401 4.32143054,2.47991071 3.92857143,2.47991071 C3.53571232,2.47991071 3.20424242,2.61495401 2.93415179,2.88504464 C2.66406115,3.15513528 2.52901786,3.47842074 2.52901786,3.85491071 C2.52901786,4.23140069 2.66406115,4.55468615 2.93415179,4.82477679 C3.20424242,5.09486742 3.53571232,5.22991071 3.92857143,5.22991071 Z" id="ion-android-pin---Ionicons"></path>
                            </g>
                        </g>
                    </g>
                </g>
            </g>
        </g>
    </g>
</svg>