<svg width="13" height="13" xmlns="http://www.w3.org/2000/svg">
 <!-- Generator: sketchtool 49.3 (51167) - http://www.bohemiancoding.com/sketch -->
 <title>70FB99A1-86E9-4D35-B0A0-DB3668A4C210</title>
 <desc>Created with sketchtool.</desc>

 <g>
  <title>background</title>
  <rect fill="none" id="canvas_background" height="402" width="582" y="-1" x="-1"/>
 </g>
 <g>
  <title>Layer 1</title>
  <g fill-opacity="0.2" fill-rule="evenodd" fill="none" id="desktop">
   <g fill="#0077B3" id="Simptom/1.4">
    <g id="Group-3">
     <path id="cancel---material" d="m9.635,9l-2.25,-2.25l2.25,-2.25l-0.885,-0.885l-2.25,2.25l-2.25,-2.25l-0.885,0.885l2.25,2.25l-2.25,2.25l0.885,0.885l2.25,-2.25l2.25,2.25l0.885,-0.885zm-3.135,-8.49c1.14001,0 2.19499,0.285 3.165,0.855c0.94001,0.54 1.68,1.28 2.22,2.22c0.57,0.97 0.855,2.02499 0.855,3.165c0,1.14001 -0.285,2.195 -0.855,3.165c-0.54,0.94 -1.27999,1.68 -2.22,2.22c-0.97001,0.57 -2.02499,0.855 -3.165,0.855c-1.14001,0 -2.19499,-0.285 -3.165,-0.855c-0.94001,-0.55 -1.68,-1.295 -2.22,-2.235c-0.57,-0.97 -0.855,-2.01999 -0.855,-3.15c0,-1.13001 0.285,-2.18 0.855,-3.15c0.55,-0.94 1.29499,-1.685 2.235,-2.235c0.97001,-0.57 2.01999,-0.855 3.15,-0.855z"/>
    </g>
   </g>
  </g>
  <g fill-opacity="0.2" fill-rule="evenodd" fill="none" id="svg_4">
   <g fill="#0077B3" id="svg_3">
    <g id="svg_2">
     <path id="svg_1" d="m9.635,9l-2.25,-2.25l2.25,-2.25l-0.885,-0.885l-2.25,2.25l-2.25,-2.25l-0.885,0.885l2.25,2.25l-2.25,2.25l0.885,0.885l2.25,-2.25l2.25,2.25l0.885,-0.885zm-3.135,-8.49c1.14001,0 2.19499,0.285 3.165,0.855c0.94001,0.54 1.68,1.28 2.22,2.22c0.57,0.97 0.855,2.02499 0.855,3.165c0,1.14001 -0.285,2.195 -0.855,3.165c-0.54,0.94 -1.27999,1.68 -2.22,2.22c-0.97001,0.57 -2.02499,0.855 -3.165,0.855c-1.14001,0 -2.19499,-0.285 -3.165,-0.855c-0.94001,-0.55 -1.68,-1.295 -2.22,-2.235c-0.57,-0.97 -0.855,-2.01999 -0.855,-3.15c0,-1.13001 0.285,-2.18 0.855,-3.15c0.55,-0.94 1.29499,-1.685 2.235,-2.235c0.97001,-0.57 2.01999,-0.855 3.15,-0.855z"/>
    </g>
   </g>
  </g>
  <g fill-opacity="0.2" fill-rule="evenodd" fill="none" id="svg_8">
   <g fill="#0077B3" id="svg_7">
    <g id="svg_6">
     <path id="svg_5" d="m9.635,9l-2.25,-2.25l2.25,-2.25l-0.885,-0.885l-2.25,2.25l-2.25,-2.25l-0.885,0.885l2.25,2.25l-2.25,2.25l0.885,0.885l2.25,-2.25l2.25,2.25l0.885,-0.885zm-3.135,-8.49c1.14001,0 2.19499,0.285 3.165,0.855c0.94001,0.54 1.68,1.28 2.22,2.22c0.57,0.97 0.855,2.02499 0.855,3.165c0,1.14001 -0.285,2.195 -0.855,3.165c-0.54,0.94 -1.27999,1.68 -2.22,2.22c-0.97001,0.57 -2.02499,0.855 -3.165,0.855c-1.14001,0 -2.19499,-0.285 -3.165,-0.855c-0.94001,-0.55 -1.68,-1.295 -2.22,-2.235c-0.57,-0.97 -0.855,-2.01999 -0.855,-3.15c0,-1.13001 0.285,-2.18 0.855,-3.15c0.55,-0.94 1.29499,-1.685 2.235,-2.235c0.97001,-0.57 2.01999,-0.855 3.15,-0.855z"/>
    </g>
   </g>
  </g>
  <g fill-opacity="0.2" fill-rule="evenodd" fill="none" id="svg_12">
   <g fill="#0077B3" id="svg_11">
    <g id="svg_10">
     <path id="svg_9" d="m9.635,9l-2.25,-2.25l2.25,-2.25l-0.885,-0.885l-2.25,2.25l-2.25,-2.25l-0.885,0.885l2.25,2.25l-2.25,2.25l0.885,0.885l2.25,-2.25l2.25,2.25l0.885,-0.885zm-3.135,-8.49c1.14001,0 2.19499,0.285 3.165,0.855c0.94001,0.54 1.68,1.28 2.22,2.22c0.57,0.97 0.855,2.02499 0.855,3.165c0,1.14001 -0.285,2.195 -0.855,3.165c-0.54,0.94 -1.27999,1.68 -2.22,2.22c-0.97001,0.57 -2.02499,0.855 -3.165,0.855c-1.14001,0 -2.19499,-0.285 -3.165,-0.855c-0.94001,-0.55 -1.68,-1.295 -2.22,-2.235c-0.57,-0.97 -0.855,-2.01999 -0.855,-3.15c0,-1.13001 0.285,-2.18 0.855,-3.15c0.55,-0.94 1.29499,-1.685 2.235,-2.235c0.97001,-0.57 2.01999,-0.855 3.15,-0.855z"/>
    </g>
   </g>
  </g>
  <g fill-opacity="0.2" fill-rule="evenodd" fill="none" id="svg_16">
   <g fill="#0077B3" id="svg_15">
    <g id="svg_14">
     <path id="svg_13" d="m9.635,9l-2.25,-2.25l2.25,-2.25l-0.885,-0.885l-2.25,2.25l-2.25,-2.25l-0.885,0.885l2.25,2.25l-2.25,2.25l0.885,0.885l2.25,-2.25l2.25,2.25l0.885,-0.885zm-3.135,-8.49c1.14001,0 2.19499,0.285 3.165,0.855c0.94001,0.54 1.68,1.28 2.22,2.22c0.57,0.97 0.855,2.02499 0.855,3.165c0,1.14001 -0.285,2.195 -0.855,3.165c-0.54,0.94 -1.27999,1.68 -2.22,2.22c-0.97001,0.57 -2.02499,0.855 -3.165,0.855c-1.14001,0 -2.19499,-0.285 -3.165,-0.855c-0.94001,-0.55 -1.68,-1.295 -2.22,-2.235c-0.57,-0.97 -0.855,-2.01999 -0.855,-3.15c0,-1.13001 0.285,-2.18 0.855,-3.15c0.55,-0.94 1.29499,-1.685 2.235,-2.235c0.97001,-0.57 2.01999,-0.855 3.15,-0.855z"/>
    </g>
   </g>
  </g>
  <g fill-opacity="0.2" fill-rule="evenodd" fill="none" id="svg_20">
   <g fill="#0077B3" id="svg_19">
    <g id="svg_18">
     <path id="svg_17" d="m9.635,9l-2.25,-2.25l2.25,-2.25l-0.885,-0.885l-2.25,2.25l-2.25,-2.25l-0.885,0.885l2.25,2.25l-2.25,2.25l0.885,0.885l2.25,-2.25l2.25,2.25l0.885,-0.885zm-3.135,-8.49c1.14001,0 2.19499,0.285 3.165,0.855c0.94001,0.54 1.68,1.28 2.22,2.22c0.57,0.97 0.855,2.02499 0.855,3.165c0,1.14001 -0.285,2.195 -0.855,3.165c-0.54,0.94 -1.27999,1.68 -2.22,2.22c-0.97001,0.57 -2.02499,0.855 -3.165,0.855c-1.14001,0 -2.19499,-0.285 -3.165,-0.855c-0.94001,-0.55 -1.68,-1.295 -2.22,-2.235c-0.57,-0.97 -0.855,-2.01999 -0.855,-3.15c0,-1.13001 0.285,-2.18 0.855,-3.15c0.55,-0.94 1.29499,-1.685 2.235,-2.235c0.97001,-0.57 2.01999,-0.855 3.15,-0.855z"/>
    </g>
   </g>
  </g>
  <g fill-opacity="0.2" fill-rule="evenodd" fill="none" id="svg_24">
   <g fill="#0077B3" id="svg_23">
    <g id="svg_22">
     <path id="svg_21" d="m9.635,9l-2.25,-2.25l2.25,-2.25l-0.885,-0.885l-2.25,2.25l-2.25,-2.25l-0.885,0.885l2.25,2.25l-2.25,2.25l0.885,0.885l2.25,-2.25l2.25,2.25l0.885,-0.885zm-3.135,-8.49c1.14001,0 2.19499,0.285 3.165,0.855c0.94001,0.54 1.68,1.28 2.22,2.22c0.57,0.97 0.855,2.02499 0.855,3.165c0,1.14001 -0.285,2.195 -0.855,3.165c-0.54,0.94 -1.27999,1.68 -2.22,2.22c-0.97001,0.57 -2.02499,0.855 -3.165,0.855c-1.14001,0 -2.19499,-0.285 -3.165,-0.855c-0.94001,-0.55 -1.68,-1.295 -2.22,-2.235c-0.57,-0.97 -0.855,-2.01999 -0.855,-3.15c0,-1.13001 0.285,-2.18 0.855,-3.15c0.55,-0.94 1.29499,-1.685 2.235,-2.235c0.97001,-0.57 2.01999,-0.855 3.15,-0.855z"/>
    </g>
   </g>
  </g>
  <g fill-opacity="0.2" fill-rule="evenodd" fill="none" id="svg_28">
   <g fill="#0077B3" id="svg_27">
    <g id="svg_26">
     <path id="svg_25" d="m9.635,9l-2.25,-2.25l2.25,-2.25l-0.885,-0.885l-2.25,2.25l-2.25,-2.25l-0.885,0.885l2.25,2.25l-2.25,2.25l0.885,0.885l2.25,-2.25l2.25,2.25l0.885,-0.885zm-3.135,-8.49c1.14001,0 2.19499,0.285 3.165,0.855c0.94001,0.54 1.68,1.28 2.22,2.22c0.57,0.97 0.855,2.02499 0.855,3.165c0,1.14001 -0.285,2.195 -0.855,3.165c-0.54,0.94 -1.27999,1.68 -2.22,2.22c-0.97001,0.57 -2.02499,0.855 -3.165,0.855c-1.14001,0 -2.19499,-0.285 -3.165,-0.855c-0.94001,-0.55 -1.68,-1.295 -2.22,-2.235c-0.57,-0.97 -0.855,-2.01999 -0.855,-3.15c0,-1.13001 0.285,-2.18 0.855,-3.15c0.55,-0.94 1.29499,-1.685 2.235,-2.235c0.97001,-0.57 2.01999,-0.855 3.15,-0.855z"/>
    </g>
   </g>
  </g>
 </g>
</svg>