<?xml version="1.0" encoding="UTF-8"?>
<svg width="20px" height="20px" viewBox="0 0 20 20" version="1.1" xmlns="http://www.w3.org/2000/svg" xmlns:xlink="http://www.w3.org/1999/xlink">
    <!-- Generator: sketchtool 50 (54983) - http://www.bohemiancoding.com/sketch -->
    <title>BBE666E3-8554-48D6-AB39-A7B57E7C6BAF</title>
    <desc>Created with sketchtool.</desc>
    <defs>
        <linearGradient x1="84.9313439%" y1="13.4027612%" x2="23.0620551%" y2="87.2492405%" id="linearGradient-1">
            <stop stop-color="#0FC8F0" offset="0%"></stop>
            <stop stop-color="#149DE2" offset="100%"></stop>
        </linearGradient>
        <rect id="path-2" x="0" y="0" width="58" height="58" rx="29"></rect>
        <filter x="-77.6%" y="-51.7%" width="255.2%" height="255.2%" filterUnits="objectBoundingBox" id="filter-4">
            <feOffset dx="0" dy="15" in="SourceAlpha" result="shadowOffsetOuter1"></feOffset>
            <feGaussianBlur stdDeviation="12.5" in="shadowOffsetOuter1" result="shadowBlurOuter1"></feGaussianBlur>
            <feColorMatrix values="0 0 0 0 0.0823529412   0 0 0 0 0.619607843   0 0 0 0 0.890196078  0 0 0 0.5 0" type="matrix" in="shadowBlurOuter1"></feColorMatrix>
        </filter>
    </defs>
    <g id="desktop" stroke="none" stroke-width="1" fill="none" fill-rule="evenodd">
        <g id="symptom/2.3" transform="translate(-1217.000000, -226.000000)">
            <g id="Bitmap" transform="translate(1110.000000, -356.000000)" fill="#159EE3">
                <circle id="Oval-4-Copy-2" opacity="0.0299999993" cx="875" cy="875" r="875"></circle>
                <circle id="Oval-4-Copy" opacity="0.0600000024" cx="875" cy="875" r="755"></circle>
            </g>
            <g id="1-copy-2" transform="translate(1198.000000, 207.000000)">
                <mask id="mask-3" fill="white">
                    <use xlink:href="#path-2"></use>
                </mask>
                <g id="Mask">
                    <use fill="black" fill-opacity="1" filter="url(#filter-4)" xlink:href="#path-2"></use>
                    <use fill="url(#linearGradient-1)" fill-rule="evenodd" xlink:href="#path-2"></use>
                </g>
                <path d="M37.5058036,36.4959821 C37.6352685,36.6383936 37.7,36.8066955 37.7,37.0008929 C37.7,37.1950903 37.6352685,37.3633921 37.5058036,37.5058036 C37.3633921,37.6352685 37.1950903,37.7 37.0008929,37.7 C36.8066955,37.7 36.6448667,37.6352685 36.5154018,37.5058036 L32.5149554,33.5053571 C31.1296806,34.6446486 29.5437589,35.2142857 27.7571429,35.2142857 C25.6986504,35.2142857 23.9411903,34.4860564 22.4847098,33.0295759 C21.0282293,31.5730954 20.3,29.8156353 20.3,27.7571429 C20.3,25.6986504 21.0282293,23.9411903 22.4847098,22.4847098 C23.9411903,21.0282293 25.6986504,20.3 27.7571429,20.3 C29.8156353,20.3 31.5730954,21.0282293 33.0295759,22.4847098 C34.4860564,23.9411903 35.2142857,25.6986504 35.2142857,27.7571429 C35.2142857,29.5437589 34.6446486,31.1296806 33.5053571,32.5149554 L37.5058036,36.4959821 Z M30.1069196,33.35 C30.8319233,33.0392842 31.4760016,32.6023466 32.0391741,32.0391741 C32.6023466,31.4760016 33.0392842,30.8319233 33.35,30.1069196 C33.6607158,29.3689695 33.8160714,28.5857184 33.8160714,27.7571429 C33.8160714,26.9285673 33.6607158,26.1453162 33.35,25.4073661 C33.0392842,24.6823624 32.6023466,24.0382841 32.0391741,23.4751116 C31.4760016,22.9119391 30.8319233,22.4750016 30.1069196,22.1642857 C29.3689695,21.8535699 28.5857184,21.6982143 27.7571429,21.6982143 C26.9285673,21.6982143 26.1453162,21.8535699 25.4073661,22.1642857 C24.6823624,22.4750016 24.0382841,22.9119391 23.4751116,23.4751116 C22.9119391,24.0382841 22.4814747,24.6823624 22.1837054,25.4073661 C21.860043,26.1453162 21.6982143,26.9285673 21.6982143,27.7571429 C21.6982143,28.5857184 21.860043,29.3689695 22.1837054,30.1069196 C22.4814747,30.8319233 22.9119391,31.4760016 23.4751116,32.0391741 C24.0382841,32.6023466 24.6823624,33.0392842 25.4073661,33.35 C26.1453162,33.6607158 26.9285673,33.8160714 27.7571429,33.8160714 C28.5857184,33.8160714 29.3689695,33.6607158 30.1069196,33.35 Z" id="search---anticon" stroke="#FFFFFF" stroke-width="0.8" fill="#FFFFFF" mask="url(#mask-3)"></path>
            </g>
        </g>
    </g>
</svg>